<svg xmlns="http://www.w3.org/2000/svg" xmlns:xlink="http://www.w3.org/1999/xlink" viewBox="0 0 529.58 204.74"><defs><style>.cls-1{fill:none;}.cls-2{fill:#fff;}.cls-3{fill:#ffde18;}.cls-4{fill:url(#Unbenannter_Verlauf_21);}.cls-5{fill:url(#Unbenannter_Verlauf_21-2);}.cls-6{fill:url(#Unbenannter_Verlauf_21-3);}.cls-7{fill:url(#Unbenannter_Verlauf_21-4);}.cls-8{fill:url(#Unbenannter_Verlauf_21-5);}.cls-9{fill:url(#Unbenannter_Verlauf_21-6);}.cls-10{fill:url(#Unbenannter_Verlauf_21-7);}.cls-11{fill:url(#Unbenannter_Verlauf_21-8);}</style><linearGradient id="Unbenannter_Verlauf_21" x1="348.75" y1="180.11" x2="389.18" y2="180.11" gradientUnits="userSpaceOnUse"><stop offset="0" stop-color="#ffde18"/><stop offset="1" stop-color="#ffde18"/></linearGradient><linearGradient id="Unbenannter_Verlauf_21-2" x1="332.13" y1="283.39" x2="387.8" y2="283.39" xlink:href="#Unbenannter_Verlauf_21"/><linearGradient id="Unbenannter_Verlauf_21-3" x1="394.9" y1="276.4" x2="494.11" y2="276.4" xlink:href="#Unbenannter_Verlauf_21"/><linearGradient id="Unbenannter_Verlauf_21-4" x1="501.95" y1="255.74" x2="601.25" y2="255.74" xlink:href="#Unbenannter_Verlauf_21"/><linearGradient id="Unbenannter_Verlauf_21-5" x1="607.52" y1="276.4" x2="706.73" y2="276.4" xlink:href="#Unbenannter_Verlauf_21"/><linearGradient id="Unbenannter_Verlauf_21-6" x1="711.25" y1="267.74" x2="861.71" y2="267.74" xlink:href="#Unbenannter_Verlauf_21"/><linearGradient id="Unbenannter_Verlauf_21-7" x1="751.94" y1="179.82" x2="859.69" y2="179.82" xlink:href="#Unbenannter_Verlauf_21"/><linearGradient id="Unbenannter_Verlauf_21-8" x1="709.6" y1="179.87" x2="748.74" y2="179.87" xlink:href="#Unbenannter_Verlauf_21"/></defs><title>juhuUi Logo</title><path class="cls-1" d="M512.18,193.13l.09-.1Z" transform="translate(-332.13 -159.7)"/><path class="cls-1" d="M574.79,317.65a8.28,8.28,0,0,1-1.24-2.59A8.28,8.28,0,0,0,574.79,317.65Z" transform="translate(-332.13 -159.7)"/><path class="cls-1" d="M580.18,321.27a9.63,9.63,0,0,1-1.75-.64A9.63,9.63,0,0,0,580.18,321.27Z" transform="translate(-332.13 -159.7)"/><path class="cls-1" d="M483.86,233.08a6.25,6.25,0,0,0-.69-.67,10.36,10.36,0,0,0-2.37-1.54,10.36,10.36,0,0,1,2.37,1.54A6.25,6.25,0,0,1,483.86,233.08Z" transform="translate(-332.13 -159.7)"/><path class="cls-1" d="M561.76,228.63c1.09.05,2.17.13,3.23.26C563.93,228.76,562.85,228.68,561.76,228.63Z" transform="translate(-332.13 -159.7)"/><path class="cls-1" d="M516.29,190.47a11,11,0,0,1,1.86-.47A11,11,0,0,0,516.29,190.47Z" transform="translate(-332.13 -159.7)"/><path class="cls-1" d="M560.09,228.6h0c.56,0,1.12,0,1.67,0C561.21,228.61,560.65,228.6,560.09,228.6Z" transform="translate(-332.13 -159.7)"/><path class="cls-1" d="M520.14,189.84a11.25,11.25,0,0,1,2.88.36A11.25,11.25,0,0,0,520.14,189.84Z" transform="translate(-332.13 -159.7)"/><path class="cls-1" d="M421.34,233.8a8.16,8.16,0,0,0-1.31-1.39A8.16,8.16,0,0,1,421.34,233.8Z" transform="translate(-332.13 -159.7)"/><path class="cls-1" d="M418.47,231.31a10.59,10.59,0,0,0-5.46-1.42,11.08,11.08,0,0,0-4.72,1,11.08,11.08,0,0,1,4.72-1A10.59,10.59,0,0,1,418.47,231.31Z" transform="translate(-332.13 -159.7)"/><path class="cls-1" d="M414.05,315.62a30.7,30.7,0,0,0,9.34,5.24,35.58,35.58,0,0,0,4.53,1.25,35.58,35.58,0,0,1-4.53-1.25A30.7,30.7,0,0,1,414.05,315.62Z" transform="translate(-332.13 -159.7)"/><path class="cls-1" d="M580.67,234.9q1.25.9,2.43,1.92Q581.92,235.8,580.67,234.9Z" transform="translate(-332.13 -159.7)"/><path class="cls-1" d="M480.8,230.87a11,11,0,0,0-4.7-1,11.71,11.71,0,0,0-2,.16,11.71,11.71,0,0,1,2-.16A11,11,0,0,1,480.8,230.87Z" transform="translate(-332.13 -159.7)"/><path class="cls-1" d="M593.2,313a10.1,10.1,0,0,1-.38,2A10.1,10.1,0,0,0,593.2,313Z" transform="translate(-332.13 -159.7)"/><path class="cls-1" d="M465,309.07c.37-.6.71-1.22,1-1.85h0C465.68,307.85,465.34,308.47,465,309.07Z" transform="translate(-332.13 -159.7)"/><path class="cls-1" d="M467.65,317.93a8,8,0,0,0,1.29,1.32,10.59,10.59,0,0,0,3.21,1.79,10.59,10.59,0,0,1-3.21-1.79A8,8,0,0,1,467.65,317.93Z" transform="translate(-332.13 -159.7)"/><path class="cls-1" d="M459.62,315.35a26.06,26.06,0,0,0,2.93-2.92A26.06,26.06,0,0,1,459.62,315.35Z" transform="translate(-332.13 -159.7)"/><path class="cls-1" d="M443.49,322.35a35.91,35.91,0,0,0,10.8-3.47,29.31,29.31,0,0,0,3.68-2.24,29.31,29.31,0,0,1-3.68,2.24A35.91,35.91,0,0,1,443.49,322.35Z" transform="translate(-332.13 -159.7)"/><path class="cls-1" d="M586.91,321a10.6,10.6,0,0,1-1.86.49A10.6,10.6,0,0,0,586.91,321Z" transform="translate(-332.13 -159.7)"/><path class="cls-1" d="M679.36,235.51a7.91,7.91,0,0,1,.94-1.65A7.91,7.91,0,0,0,679.36,235.51Z" transform="translate(-332.13 -159.7)"/><path class="cls-1" d="M616.27,235.45a8.34,8.34,0,0,1,.93-1.65A8.34,8.34,0,0,0,616.27,235.45Z" transform="translate(-332.13 -159.7)"/><path class="cls-1" d="M636.35,295a19.41,19.41,0,0,0,3.19,7.34A19.41,19.41,0,0,1,636.35,295Z" transform="translate(-332.13 -159.7)"/><path class="cls-1" d="M693.17,230.77a11.15,11.15,0,0,0-4.45-.88,11.71,11.71,0,0,0-2,.16,11.71,11.71,0,0,1,2-.16A11.15,11.15,0,0,1,693.17,230.77Z" transform="translate(-332.13 -159.7)"/><path class="cls-1" d="M684,230.89a10.44,10.44,0,0,1,2.73-.84A10.44,10.44,0,0,0,684,230.89Z" transform="translate(-332.13 -159.7)"/><path class="cls-1" d="M642.06,305.05a17.75,17.75,0,0,1-1.33-1.28,15.17,15.17,0,0,1-1.19-1.44,15.17,15.17,0,0,0,1.19,1.44A17.75,17.75,0,0,0,642.06,305.05Z" transform="translate(-332.13 -159.7)"/><path class="cls-1" d="M678.62,239.53a10.4,10.4,0,0,1,.74-4,10.4,10.4,0,0,0-.74,4v41.7a39.65,39.65,0,0,1-.53,6,39.65,39.65,0,0,0,.53-6Z" transform="translate(-332.13 -159.7)"/><path class="cls-1" d="M681.6,232.46a10.43,10.43,0,0,1,2.4-1.57,10.43,10.43,0,0,0-2.4,1.57,8.57,8.57,0,0,0-1.3,1.4A8.57,8.57,0,0,1,681.6,232.46Z" transform="translate(-332.13 -159.7)"/><path class="cls-1" d="M554.77,242.47a22.1,22.1,0,0,1,3.89.33,22.1,22.1,0,0,0-3.89-.33Z" transform="translate(-332.13 -159.7)"/><path class="cls-1" d="M532.45,239.47a25.8,25.8,0,0,0-2.3,3.09h0A25.8,25.8,0,0,1,532.45,239.47Z" transform="translate(-332.13 -159.7)"/><path class="cls-1" d="M532,258.75a24.59,24.59,0,0,1,5.44-8.75q.9-.94,1.86-1.77-1,.83-1.86,1.77A24.59,24.59,0,0,0,532,258.75Z" transform="translate(-332.13 -159.7)"/><path class="cls-1" d="M535.19,236.74a26.16,26.16,0,0,0-2.74,2.73A26.16,26.16,0,0,1,535.19,236.74Z" transform="translate(-332.13 -159.7)"/><path class="cls-1" d="M592.57,255.21c.23,1.33.4,2.69.51,4.11C593,257.9,592.8,256.54,592.57,255.21Z" transform="translate(-332.13 -159.7)"/><path class="cls-1" d="M590.22,319.06a10.61,10.61,0,0,1-2.43,1.57,10.61,10.61,0,0,0,2.43-1.57,8.07,8.07,0,0,0,1.84-2.21A8.07,8.07,0,0,1,590.22,319.06Z" transform="translate(-332.13 -159.7)"/><path class="cls-1" d="M648.68,322.92q1.29,0,2.55-.06-1.26.06-2.55.06Z" transform="translate(-332.13 -159.7)"/><path class="cls-1" d="M591.72,251.37a38.37,38.37,0,0,1,.85,3.84A38.37,38.37,0,0,0,591.72,251.37Z" transform="translate(-332.13 -159.7)"/><path class="cls-1" d="M574.79,317.65a7.77,7.77,0,0,0,1.28,1.41A7.77,7.77,0,0,1,574.79,317.65Z" transform="translate(-332.13 -159.7)"/><path class="cls-1" d="M423.1,290.38a30.71,30.71,0,0,0,.63,4.61A30.71,30.71,0,0,1,423.1,290.38Z" transform="translate(-332.13 -159.7)"/><path class="cls-1" d="M344.17,355.89a5.64,5.64,0,0,1-1.72-1.13A5.64,5.64,0,0,0,344.17,355.89Z" transform="translate(-332.13 -159.7)"/><path class="cls-1" d="M369.7,210.33h0a11.83,11.83,0,0,1,2,.16A11.83,11.83,0,0,0,369.7,210.33Z" transform="translate(-332.13 -159.7)"/><path class="cls-1" d="M345.55,356.31a6.71,6.71,0,0,1-1.38-.42A6.71,6.71,0,0,0,345.55,356.31Z" transform="translate(-332.13 -159.7)"/><path class="cls-1" d="M371.7,210.49a10.08,10.08,0,0,1,2.72.88A10.08,10.08,0,0,0,371.7,210.49Z" transform="translate(-332.13 -159.7)"/><path class="cls-1" d="M378.43,339.72c-.19.84-.4,1.67-.65,2.49C378,341.39,378.24,340.56,378.43,339.72Z" transform="translate(-332.13 -159.7)"/><path class="cls-1" d="M369,191.68c.46,0,.9,0,1.34-.05-.44,0-.88.05-1.34.05Z" transform="translate(-332.13 -159.7)"/><path class="cls-1" d="M359.35,187.69a10.12,10.12,0,0,1-1.27-1.85A10.12,10.12,0,0,0,359.35,187.69Z" transform="translate(-332.13 -159.7)"/><path class="cls-1" d="M379.14,336c.1-.7.18-1.41.25-2.12.14-1.43.24-3,.31-4.81-.07,1.78-.17,3.38-.31,4.81C379.32,334.61,379.24,335.32,379.14,336Z" transform="translate(-332.13 -159.7)"/><path class="cls-1" d="M344.24,342.24a5.35,5.35,0,0,0-2.36,1.7A5.35,5.35,0,0,1,344.24,342.24Z" transform="translate(-332.13 -159.7)"/><path class="cls-1" d="M845.91,189.2a10.09,10.09,0,0,1-2,.54A10.09,10.09,0,0,0,845.91,189.2Z" transform="translate(-332.13 -159.7)"/><path class="cls-1" d="M844.85,170.15a8.74,8.74,0,0,1,1.83.77A8.74,8.74,0,0,0,844.85,170.15Z" transform="translate(-332.13 -159.7)"/><path class="cls-1" d="M841.67,169.72h0a11.07,11.07,0,0,1,3.18.43A11.07,11.07,0,0,0,841.67,169.72Z" transform="translate(-332.13 -159.7)"/><path class="cls-1" d="M357.93,174.76a10.33,10.33,0,0,1,1.42-2.18A10.33,10.33,0,0,0,357.93,174.76Z" transform="translate(-332.13 -159.7)"/><path class="cls-1" d="M770,169.72a11.69,11.69,0,0,0-3.23.42,11.69,11.69,0,0,1,3.23-.42Z" transform="translate(-332.13 -159.7)"/><path class="cls-1" d="M761.7,185.71a10.51,10.51,0,0,1-1.76-6,10.15,10.15,0,0,1,1.7-5.76,10.15,10.15,0,0,0-1.7,5.76A10.51,10.51,0,0,0,761.7,185.71Z" transform="translate(-332.13 -159.7)"/><path class="cls-1" d="M850.66,184.69a10.57,10.57,0,0,0,1-4.68,10.79,10.79,0,0,0-1.06-4.76,10.79,10.79,0,0,1,1.06,4.76A10.57,10.57,0,0,1,850.66,184.69Z" transform="translate(-332.13 -159.7)"/><path class="cls-1" d="M770,189.92h0a11.69,11.69,0,0,1-3.23-.42A11.69,11.69,0,0,0,770,189.92Z" transform="translate(-332.13 -159.7)"/><path class="cls-1" d="M841.67,189.92a13.53,13.53,0,0,0,2.26-.18,13.53,13.53,0,0,1-2.26.18Z" transform="translate(-332.13 -159.7)"/><path class="cls-1" d="M475.92,321.64h0a11.55,11.55,0,0,1-3.77-.6A11.55,11.55,0,0,0,475.92,321.64Z" transform="translate(-332.13 -159.7)"/><path class="cls-1" d="M404.4,300c-.33-1.24-.61-2.52-.83-3.84C403.79,297.45,404.07,298.73,404.4,300Z" transform="translate(-332.13 -159.7)"/><path class="cls-1" d="M434.37,322.89c-1.11,0-2.2-.13-3.28-.26C432.17,322.76,433.26,322.85,434.37,322.89Z" transform="translate(-332.13 -159.7)"/><path class="cls-1" d="M403.57,296.13c-.22-1.33-.39-2.7-.5-4.11C403.18,293.43,403.35,294.8,403.57,296.13Z" transform="translate(-332.13 -159.7)"/><path class="cls-1" d="M469.75,231.85a10.24,10.24,0,0,1,4.36-1.8A10.24,10.24,0,0,0,469.75,231.85Z" transform="translate(-332.13 -159.7)"/><path class="cls-1" d="M436.06,322.92h0c-.57,0-1.13,0-1.69,0C434.93,322.91,435.49,322.92,436.06,322.92Z" transform="translate(-332.13 -159.7)"/><path class="cls-1" d="M630.26,230.87a10.78,10.78,0,0,0-4.64-1,11,11,0,0,0-4.71,1,11,11,0,0,1,4.71-1A10.78,10.78,0,0,1,630.26,230.87Z" transform="translate(-332.13 -159.7)"/><path class="cls-1" d="M461.8,297.42a26.81,26.81,0,0,0,2.27-4.77A26.81,26.81,0,0,1,461.8,297.42Z" transform="translate(-332.13 -159.7)"/><path class="cls-1" d="M418.47,231.31a9.78,9.78,0,0,1,1.56,1.1A9.78,9.78,0,0,0,418.47,231.31Z" transform="translate(-332.13 -159.7)"/><path class="cls-1" d="M421.85,234.6a8.57,8.57,0,0,1,.75,1.78A8.57,8.57,0,0,0,421.85,234.6Z" transform="translate(-332.13 -159.7)"/><path class="cls-1" d="M359.35,187.69c.25.28.52.56.8.82a11.17,11.17,0,0,0,3.9,2.38,11.17,11.17,0,0,1-3.9-2.38C359.87,188.25,359.6,188,359.35,187.69Z" transform="translate(-332.13 -159.7)"/><path class="cls-1" d="M380.36,175.45a11.77,11.77,0,0,1,.62,2.21A11.77,11.77,0,0,0,380.36,175.45Z" transform="translate(-332.13 -159.7)"/><path class="cls-1" d="M379.32,173.48a10,10,0,0,1,1,2A10,10,0,0,0,379.32,173.48Z" transform="translate(-332.13 -159.7)"/><path class="cls-1" d="M379.32,173.48a10.67,10.67,0,0,0-1.44-1.73,11.07,11.07,0,0,0-1.8-1.41,11.07,11.07,0,0,1,1.8,1.41A10.67,10.67,0,0,1,379.32,173.48Z" transform="translate(-332.13 -159.7)"/><path class="cls-1" d="M372.88,169a12.07,12.07,0,0,1,2.21.8A12.07,12.07,0,0,0,372.88,169Z" transform="translate(-332.13 -159.7)"/><path class="cls-1" d="M482.31,319.74a10.83,10.83,0,0,1-1.66.93A10.83,10.83,0,0,0,482.31,319.74Z" transform="translate(-332.13 -159.7)"/><path class="cls-1" d="M363,169.79a11.13,11.13,0,0,0-2.85,2c-.28.27-.55.55-.8.83.25-.28.52-.56.8-.83A11.13,11.13,0,0,1,363,169.79Z" transform="translate(-332.13 -159.7)"/><path class="cls-1" d="M479.78,321a11.49,11.49,0,0,1-1.86.46A11.49,11.49,0,0,0,479.78,321Z" transform="translate(-332.13 -159.7)"/><path class="cls-1" d="M363,169.79a12.44,12.44,0,0,1,3.44-1A12.44,12.44,0,0,0,363,169.79Z" transform="translate(-332.13 -159.7)"/><path class="cls-1" d="M729.17,167.7h0a12.43,12.43,0,0,1,5.23,1.07A12.43,12.43,0,0,0,729.17,167.7Z" transform="translate(-332.13 -159.7)"/><path class="cls-1" d="M724.12,319.6a8.63,8.63,0,0,1-1-.77A8.63,8.63,0,0,0,724.12,319.6Z" transform="translate(-332.13 -159.7)"/><path class="cls-1" d="M723.14,169.2l.67-.36Z" transform="translate(-332.13 -159.7)"/><path class="cls-1" d="M729.17,192a11.77,11.77,0,0,0,6.11-1.54,11.8,11.8,0,0,1-6.11,1.54Z" transform="translate(-332.13 -159.7)"/><path class="cls-1" d="M807.11,298.33c-.62,0-1.25,0-1.9,0h0C805.86,298.37,806.49,298.36,807.11,298.33Z" transform="translate(-332.13 -159.7)"/><path class="cls-1" d="M724.12,215.88a9.49,9.49,0,0,0-2,1.72,12.27,12.27,0,0,0-1.26,1.75,12.27,12.27,0,0,1,1.26-1.75A9.49,9.49,0,0,1,724.12,215.88Z" transform="translate(-332.13 -159.7)"/><path class="cls-1" d="M805.86,321.24a50.34,50.34,0,0,0,21-4.22,50.34,50.34,0,0,1-21,4.22Z" transform="translate(-332.13 -159.7)"/><path class="cls-1" d="M852.43,254a61.57,61.57,0,0,0-1.71-6.87c-.19-.59-.39-1.18-.59-1.76.2.58.4,1.17.59,1.76A61.57,61.57,0,0,1,852.43,254Z" transform="translate(-332.13 -159.7)"/><path class="cls-1" d="M739.5,185.88a13.58,13.58,0,0,0,1.24-6,13.84,13.84,0,0,0-1.24-6,13.84,13.84,0,0,1,1.24,6A13.58,13.58,0,0,1,739.5,185.88Z" transform="translate(-332.13 -159.7)"/><path class="cls-1" d="M849.93,290.81c.28-.78.54-1.56.79-2.36a62.63,62.63,0,0,0,1.82-7.38,62.63,62.63,0,0,1-1.82,7.38C850.47,289.25,850.21,290,849.93,290.81Z" transform="translate(-332.13 -159.7)"/><path class="cls-1" d="M725.62,299.22a9.3,9.3,0,0,0-3.48,2.55,13,13,0,0,0-1.26,1.77,13,13,0,0,1,1.26-1.77A9.3,9.3,0,0,1,725.62,299.22Z" transform="translate(-332.13 -159.7)"/><path class="cls-1" d="M853.71,267.79a73,73,0,0,1-1.17,13.28,73,73,0,0,0,1.17-13.28,73.8,73.8,0,0,0-1.11-12.92A73.8,73.8,0,0,1,853.71,267.79Z" transform="translate(-332.13 -159.7)"/><path class="cls-1" d="M722.14,233.67a11.89,11.89,0,0,1-1.26-1.77,11.89,11.89,0,0,0,1.26,1.77,9.09,9.09,0,0,0,3.48,2.51A9.09,9.09,0,0,1,722.14,233.67Z" transform="translate(-332.13 -159.7)"/><path class="cls-1" d="M727.64,192a11.57,11.57,0,0,1-3.13-.75A11.57,11.57,0,0,0,727.64,192Z" transform="translate(-332.13 -159.7)"/><path class="cls-1" d="M838.84,308.9a38.15,38.15,0,0,1-5.49,4.5A38.15,38.15,0,0,0,838.84,308.9Z" transform="translate(-332.13 -159.7)"/><path class="cls-1" d="M724.51,191.2a10.34,10.34,0,0,1-2-1A10.34,10.34,0,0,0,724.51,191.2Z" transform="translate(-332.13 -159.7)"/><path class="cls-1" d="M835.07,262a37.07,37.07,0,0,1,.45,5.82,36.15,36.15,0,0,1-.45,5.74,36.15,36.15,0,0,0,.45-5.74A37.07,37.07,0,0,0,835.07,262Z" transform="translate(-332.13 -159.7)"/><path class="cls-1" d="M819,215.77a44.78,44.78,0,0,1,7.91,2.75A44.78,44.78,0,0,0,819,215.77Z" transform="translate(-332.13 -159.7)"/><path class="cls-1" d="M828,246.17l.42.49c.44.54.83,1.1,1.22,1.66-.39-.56-.78-1.12-1.22-1.66Z" transform="translate(-332.13 -159.7)"/><path class="cls-1" d="M718,316.12a12,12,0,0,0,1.27,1.77,8,8,0,0,0,.76.78,8,8,0,0,1-.76-.78A12,12,0,0,1,718,316.12Z" transform="translate(-332.13 -159.7)"/><path class="cls-1" d="M678.62,307.22h0v5.32a9.5,9.5,0,0,0,.73,3.84,9.5,9.5,0,0,1-.73-3.84Z" transform="translate(-332.13 -159.7)"/><path class="cls-1" d="M728.84,237a11.17,11.17,0,0,1-3.22-.77A11.17,11.17,0,0,0,728.84,237Z" transform="translate(-332.13 -159.7)"/><path class="cls-1" d="M805.86,214.24h0a59.6,59.6,0,0,1,6,.31A59.6,59.6,0,0,0,805.86,214.24Z" transform="translate(-332.13 -159.7)"/><path class="cls-1" d="M805.21,237c.65,0,1.28,0,1.9,0-.62,0-1.25,0-1.9,0Z" transform="translate(-332.13 -159.7)"/><path class="cls-1" d="M618.51,232.41c.25-.21.5-.41.76-.59-.26.18-.51.38-.76.59a8.16,8.16,0,0,0-1.31,1.39A8.16,8.16,0,0,1,618.51,232.41Z" transform="translate(-332.13 -159.7)"/><path class="cls-1" d="M623.29,312.35a23.51,23.51,0,0,0,2.2,2.26c.38.35.78.69,1.18,1-.4-.32-.8-.66-1.18-1A23.51,23.51,0,0,1,623.29,312.35Z" transform="translate(-332.13 -159.7)"/><path class="cls-1" d="M615.52,239.53a11.12,11.12,0,0,1,.42-3.15,11.12,11.12,0,0,0-.42,3.15v48.12a45.49,45.49,0,0,0,2,14.14,45.49,45.49,0,0,1-2-14.14Z" transform="translate(-332.13 -159.7)"/><path class="cls-2" d="M380.36,175.45a10,10,0,0,0-1-2,10.67,10.67,0,0,0-1.44-1.73,11.07,11.07,0,0,0-1.8-1.41c-.32-.2-.65-.38-1-.55a12.07,12.07,0,0,0-2.21-.8,15.33,15.33,0,0,0-3.82-.45,15.74,15.74,0,0,0-2.62.2,12.44,12.44,0,0,0-3.44,1,11.13,11.13,0,0,0-2.85,2c-.28.27-.55.55-.8.83a10.33,10.33,0,0,0-1.42,2.18,11.31,11.31,0,0,0-1.12,4.09q-.06.61-.06,1.26c0,.43,0,.86.06,1.27a11.24,11.24,0,0,0,1.27,4.46,10.12,10.12,0,0,0,1.27,1.85c.25.28.52.56.8.82a11.17,11.17,0,0,0,3.9,2.38,14,14,0,0,0,3.59.74c.43,0,.88.05,1.33.05s.9,0,1.34-.05a15.05,15.05,0,0,0,2.49-.4,11.35,11.35,0,0,0,2.21-.79,10.49,10.49,0,0,0,1.95-1.19c.3-.23.59-.48.87-.74a10.74,10.74,0,0,0,1.47-1.71,11.67,11.67,0,0,0,1.88-6.69,14.73,14.73,0,0,0-.2-2.45A11.77,11.77,0,0,0,380.36,175.45Z" transform="translate(-332.13 -159.7)"/><path class="cls-2" d="M379.8,220.34a11,11,0,0,0-.74-4.18,8.63,8.63,0,0,0-1.54-2.47,7.71,7.71,0,0,0-.7-.7,12.21,12.21,0,0,0-1.56-1.17q-.42-.24-.84-.45a10.08,10.08,0,0,0-2.72-.88,11.83,11.83,0,0,0-2-.16,10.91,10.91,0,0,0-3.84.66c-.3.11-.59.24-.88.38a9.51,9.51,0,0,0-1.63,1c-.26.19-.52.4-.77.62a9.25,9.25,0,0,0-.7.7,8.32,8.32,0,0,0-1.11,1.58,9.16,9.16,0,0,0-1,2.85,12.16,12.16,0,0,0-.19,2.22V326c0,2.37-.05,4.38-.14,6-.06,1-.14,1.82-.23,2.53a11,11,0,0,1-.25,1.36,8.38,8.38,0,0,1-1.63,3.33,6.8,6.8,0,0,1-1.71,1.48,6.08,6.08,0,0,1-1,.47,6.6,6.6,0,0,1-1.1.3c-.58.1-1.26.18-2.06.25-.53,0-1.11.08-1.75.1s-1.31.05-2,.05h-1.13c-.25,0-.5,0-.74,0a6.09,6.09,0,0,0-1.58.37,5.35,5.35,0,0,0-2.36,1.7l-.05.06a7.64,7.64,0,0,0-.75,1.13,8.26,8.26,0,0,0-.95,4,8.51,8.51,0,0,0,.26,2.1,7.23,7.23,0,0,0,.46,1.28c.09.21.2.41.31.61a8,8,0,0,0,.81,1.15,5.91,5.91,0,0,0,.48.52,5.64,5.64,0,0,0,1.72,1.13,6.71,6.71,0,0,0,1.38.42,8.64,8.64,0,0,0,1.56.13,95.51,95.51,0,0,0,9.77-.44c1-.09,1.88-.21,2.77-.34a35.06,35.06,0,0,0,4.86-1.05,23.3,23.3,0,0,0,4-1.61,25.09,25.09,0,0,0,3.28-2,17.92,17.92,0,0,0,2.56-2.3,13.86,13.86,0,0,0,1.95-2.83,20.15,20.15,0,0,0,1.44-3.64c.25-.82.46-1.65.65-2.49.28-1.22.52-2.45.71-3.7.1-.7.18-1.41.25-2.12.14-1.43.24-3,.31-4.81s.1-3.75.1-5.89Z" transform="translate(-332.13 -159.7)"/><path class="cls-3" d="M359.46,332c-.06,1-.14,1.82-.23,2.53a11,11,0,0,1-.25,1.36,11,11,0,0,0,.25-1.36C359.32,333.78,359.4,332.94,359.46,332Z" transform="translate(-332.13 -159.7)"/><path class="cls-3" d="M379.14,336c-.19,1.25-.43,2.48-.71,3.7C378.71,338.5,379,337.27,379.14,336Z" transform="translate(-332.13 -159.7)"/><path class="cls-3" d="M377,189.25c.3-.23.59-.48.87-.74a10.74,10.74,0,0,0,1.47-1.71,10.74,10.74,0,0,1-1.47,1.71C377.55,188.77,377.26,189,377,189.25Z" transform="translate(-332.13 -159.7)"/><path class="cls-3" d="M377.52,213.69a7.71,7.71,0,0,0-.7-.7,12.21,12.21,0,0,0-1.56-1.17,12.21,12.21,0,0,1,1.56,1.17A7.71,7.71,0,0,1,377.52,213.69Z" transform="translate(-332.13 -159.7)"/><path class="cls-3" d="M347.69,341.83c.73,0,1.41,0,2-.05C349.1,341.81,348.42,341.83,347.69,341.83Z" transform="translate(-332.13 -159.7)"/><path class="cls-3" d="M359.79,218.12a9.16,9.16,0,0,1,1-2.85A9.16,9.16,0,0,0,359.79,218.12Z" transform="translate(-332.13 -159.7)"/><path class="cls-3" d="M377.52,213.69a8.63,8.63,0,0,1,1.54,2.47A8.63,8.63,0,0,0,377.52,213.69Z" transform="translate(-332.13 -159.7)"/><path class="cls-3" d="M363.35,212.37a9.51,9.51,0,0,1,1.63-1A9.51,9.51,0,0,0,363.35,212.37Z" transform="translate(-332.13 -159.7)"/><path class="cls-3" d="M360.77,215.27a8.32,8.32,0,0,1,1.11-1.58A8.32,8.32,0,0,0,360.77,215.27Z" transform="translate(-332.13 -159.7)"/><path class="cls-3" d="M342,354.24a8,8,0,0,1-.81-1.15A8,8,0,0,0,342,354.24Z" transform="translate(-332.13 -159.7)"/><path class="cls-3" d="M371.83,351a25.09,25.09,0,0,1-3.28,2A25.09,25.09,0,0,0,371.83,351Z" transform="translate(-332.13 -159.7)"/><path class="cls-3" d="M369.7,210.33a10.91,10.91,0,0,0-3.84.66,10.91,10.91,0,0,1,3.84-.66Z" transform="translate(-332.13 -159.7)"/><path class="cls-3" d="M340.85,352.48a7.23,7.23,0,0,1-.46-1.28A7.23,7.23,0,0,0,340.85,352.48Z" transform="translate(-332.13 -159.7)"/><path class="cls-3" d="M344.24,342.24a6.09,6.09,0,0,1,1.58-.37A6.09,6.09,0,0,0,344.24,342.24Z" transform="translate(-332.13 -159.7)"/><path class="cls-3" d="M354.64,341.13a6.6,6.6,0,0,1-1.1.3c-.58.1-1.26.18-2.06.25.8-.07,1.48-.15,2.06-.25A6.6,6.6,0,0,0,354.64,341.13Z" transform="translate(-332.13 -159.7)"/><path class="cls-3" d="M356.81,178.85a11.31,11.31,0,0,1,1.12-4.09A11.31,11.31,0,0,0,356.81,178.85Z" transform="translate(-332.13 -159.7)"/><path class="cls-3" d="M371.83,351a17.92,17.92,0,0,0,2.56-2.3,13.86,13.86,0,0,0,1.95-2.83,13.86,13.86,0,0,1-1.95,2.83A17.92,17.92,0,0,1,371.83,351Z" transform="translate(-332.13 -159.7)"/><path class="cls-3" d="M356.81,178.85q-.06.61-.06,1.26c0,.43,0,.86.06,1.27,0-.41-.06-.84-.06-1.27S356.77,179.26,356.81,178.85Z" transform="translate(-332.13 -159.7)"/><path class="cls-3" d="M347.69,341.83h-1.13c-.25,0-.5,0-.74,0,.24,0,.49,0,.74,0Z" transform="translate(-332.13 -159.7)"/><path class="cls-3" d="M341.88,343.94l-.05.06a7.64,7.64,0,0,0-.75,1.13,7.64,7.64,0,0,1,.75-1.13Z" transform="translate(-332.13 -159.7)"/><path class="cls-3" d="M369,191.68h0c-.45,0-.9,0-1.33-.05C368.07,191.66,368.52,191.68,369,191.68Z" transform="translate(-332.13 -159.7)"/><path class="cls-3" d="M377,189.25a10.49,10.49,0,0,1-1.95,1.19A10.49,10.49,0,0,0,377,189.25Z" transform="translate(-332.13 -159.7)"/><path class="cls-3" d="M356.88,356c1-.09,1.88-.21,2.77-.34a35.06,35.06,0,0,0,4.86-1.05,35.06,35.06,0,0,1-4.86,1.05C358.76,355.79,357.84,355.91,356.88,356Z" transform="translate(-332.13 -159.7)"/><path class="cls-3" d="M375,190.44a11.35,11.35,0,0,1-2.21.79A11.35,11.35,0,0,0,375,190.44Z" transform="translate(-332.13 -159.7)"/><path class="cls-3" d="M358.08,185.84a11.24,11.24,0,0,1-1.27-4.46A11.24,11.24,0,0,0,358.08,185.84Z" transform="translate(-332.13 -159.7)"/><path class="cls-3" d="M357.35,339.18a6.8,6.8,0,0,1-1.71,1.48A6.8,6.8,0,0,0,357.35,339.18Z" transform="translate(-332.13 -159.7)"/><path class="cls-2" d="M486.11,239.53a10.64,10.64,0,0,0-.73-4.08,7.75,7.75,0,0,0-1.52-2.37,6.25,6.25,0,0,0-.69-.67,10.36,10.36,0,0,0-2.37-1.54,11,11,0,0,0-4.7-1,11.71,11.71,0,0,0-2,.16,10.24,10.24,0,0,0-4.36,1.8c-.26.19-.52.39-.77.61a8.09,8.09,0,0,0-1.81,2.2,9.67,9.67,0,0,0-1.17,4.87v41.7c0,1-.07,2.08-.16,3.09a32.64,32.64,0,0,1-1.77,8.33,26.81,26.81,0,0,1-2.27,4.77,25.34,25.34,0,0,1-3.15,4.15,22.49,22.49,0,0,1-17,7.67,19.17,19.17,0,0,1-9.25-2.14,16.31,16.31,0,0,1-4.29-3.33,13.88,13.88,0,0,1-1.2-1.44,19.41,19.41,0,0,1-3.19-7.34,30.71,30.71,0,0,1-.63-4.61c-.06-.82-.08-1.67-.08-2.54V239.53a11.12,11.12,0,0,0-.42-3.15,8.57,8.57,0,0,0-.75-1.78,6.75,6.75,0,0,0-.51-.8,8.16,8.16,0,0,0-1.31-1.39,9.78,9.78,0,0,0-1.56-1.1,10.59,10.59,0,0,0-5.46-1.42,11.08,11.08,0,0,0-4.72,1,10.75,10.75,0,0,0-1.64.95c-.26.18-.51.38-.76.59a7.39,7.39,0,0,0-.7.67,7.55,7.55,0,0,0-1.12,1.52,8.7,8.7,0,0,0-1,2.76,12.43,12.43,0,0,0-.19,2.17v48.12c0,1.5.06,3,.17,4.37s.28,2.78.5,4.11.5,2.6.83,3.84a36.37,36.37,0,0,0,1.17,3.57c.44,1.15.93,2.24,1.45,3.28a26.61,26.61,0,0,0,5.85,7.79c.39.35.78.69,1.18,1a30.7,30.7,0,0,0,9.34,5.24,35.58,35.58,0,0,0,4.53,1.25c1,.22,2.1.39,3.17.52s2.17.22,3.28.26c.56,0,1.12,0,1.69,0,.86,0,1.72,0,2.55-.06a44.48,44.48,0,0,0,4.88-.51,35.91,35.91,0,0,0,10.8-3.47,29.31,29.31,0,0,0,3.68-2.24q.86-.61,1.65-1.29a25.43,25.43,0,0,0,5.35-6.28c.37-.6.71-1.22,1-1.85h0v5.32a10.3,10.3,0,0,0,.41,3,7.6,7.6,0,0,0,1.24,2.42,8,8,0,0,0,1.29,1.32,10.59,10.59,0,0,0,3.21,1.79,11.55,11.55,0,0,0,3.77.6c.34,0,.68,0,1,0s.67-.07,1-.12a11.49,11.49,0,0,0,1.86-.46c.29-.11.59-.22.87-.35a10.83,10.83,0,0,0,1.66-.93c.26-.18.52-.38.77-.58a7.94,7.94,0,0,0,2.84-4.86,11.07,11.07,0,0,0,.19-2.12Z" transform="translate(-332.13 -159.7)"/><path class="cls-3" d="M403.09,237.36a8.7,8.7,0,0,1,1-2.76A8.7,8.7,0,0,0,403.09,237.36Z" transform="translate(-332.13 -159.7)"/><path class="cls-3" d="M406.65,231.82a10.75,10.75,0,0,1,1.64-.95A10.75,10.75,0,0,0,406.65,231.82Z" transform="translate(-332.13 -159.7)"/><path class="cls-3" d="M404.07,234.6a7.55,7.55,0,0,1,1.12-1.52A7.55,7.55,0,0,0,404.07,234.6Z" transform="translate(-332.13 -159.7)"/><path class="cls-3" d="M466,239.53a9.67,9.67,0,0,1,1.17-4.87,9.67,9.67,0,0,0-1.17,4.87v41.7c0,1-.07,2.08-.16,3.09.09-1,.14-2,.16-3.09Z" transform="translate(-332.13 -159.7)"/><path class="cls-3" d="M485.92,314.3a8.1,8.1,0,0,1-1.51,3.49A8.1,8.1,0,0,0,485.92,314.3Z" transform="translate(-332.13 -159.7)"/><path class="cls-3" d="M469,232.46c.25-.22.51-.42.77-.61-.26.19-.52.39-.77.61a8.09,8.09,0,0,0-1.81,2.2A8.09,8.09,0,0,1,469,232.46Z" transform="translate(-332.13 -159.7)"/><path class="cls-3" d="M432.41,307.1a16.31,16.31,0,0,1-4.29-3.33,13.88,13.88,0,0,1-1.2-1.44,13.88,13.88,0,0,0,1.2,1.44A16.31,16.31,0,0,0,432.41,307.1Z" transform="translate(-332.13 -159.7)"/><path class="cls-3" d="M486.11,239.53v72.65a11.07,11.07,0,0,1-.19,2.12,11.07,11.07,0,0,0,.19-2.12V239.53a10.64,10.64,0,0,0-.73-4.08A10.64,10.64,0,0,1,486.11,239.53Z" transform="translate(-332.13 -159.7)"/><path class="cls-3" d="M436.06,322.92c.86,0,1.72,0,2.55-.06-.83,0-1.69.06-2.55.06Z" transform="translate(-332.13 -159.7)"/><path class="cls-3" d="M407,306.82c-.52-1-1-2.13-1.45-3.28C406,304.69,406.5,305.78,407,306.82Z" transform="translate(-332.13 -159.7)"/><path class="cls-3" d="M466,307.22h0v5.32a10.3,10.3,0,0,0,.41,3,10.3,10.3,0,0,1-.41-3Z" transform="translate(-332.13 -159.7)"/><path class="cls-3" d="M475.92,321.64c.34,0,.68,0,1,0-.33,0-.67,0-1,0Z" transform="translate(-332.13 -159.7)"/><path class="cls-2" d="M592.57,255.21a38.37,38.37,0,0,0-.85-3.84,33.34,33.34,0,0,0-1.18-3.58c-.23-.57-.46-1.13-.71-1.67a31.17,31.17,0,0,0-1.61-3.1,26.86,26.86,0,0,0-1.86-2.74,22.1,22.1,0,0,0-2.11-2.39c-.37-.37-.76-.73-1.15-1.07q-1.19-1-2.43-1.92a32.51,32.51,0,0,0-8.09-4.23c-1-.35-1.94-.65-3-.91s-2-.47-3.06-.64c-.52-.09-1.05-.17-1.58-.23-1.06-.13-2.14-.21-3.23-.26-.55,0-1.11,0-1.67,0-1.71,0-3.37.08-5,.23a41.05,41.05,0,0,0-9,1.86,35.71,35.71,0,0,0-4,1.63,32.17,32.17,0,0,0-5.31,3.18c-.54.4-1,.81-1.55,1.24a26.16,26.16,0,0,0-2.74,2.73,25.8,25.8,0,0,0-2.3,3.09h0V199.3a10,10,0,0,0-.74-3.94c-.13-.28-.27-.56-.42-.83a8.31,8.31,0,0,0-1.82-2.16,10.82,10.82,0,0,0-3.25-1.9q-.43-.15-.9-.27a11.25,11.25,0,0,0-2.88-.36,12.83,12.83,0,0,0-2,.16,11,11,0,0,0-1.86.47,10.87,10.87,0,0,0-3.31,1.9,8.94,8.94,0,0,0-.71.66l-.09.1a8.26,8.26,0,0,0-1,1.4,7.18,7.18,0,0,0-.42.83,9.09,9.09,0,0,0-.71,2.87,9.36,9.36,0,0,0-.05,1.07V311.9a8.93,8.93,0,0,0,3,7.16A10.49,10.49,0,0,0,516.2,321a10.38,10.38,0,0,0,1.86.49,12.83,12.83,0,0,0,2,.16,10.74,10.74,0,0,0,5.55-1.45,10.55,10.55,0,0,0,1.57-1.13,7.39,7.39,0,0,0,.7-.67,8.16,8.16,0,0,0,1.86-3.33,11.24,11.24,0,0,0,.42-3.16v-42A32.49,32.49,0,0,1,532,258.75a24.59,24.59,0,0,1,5.44-8.75q.9-.94,1.86-1.77c.31-.27.63-.54,1-.79a24,24,0,0,1,2-1.41,22.3,22.3,0,0,1,3.16-1.68,22.82,22.82,0,0,1,3.35-1.15,24.32,24.32,0,0,1,6-.73h0a22.1,22.1,0,0,1,3.89.33,16.91,16.91,0,0,1,8.06,3.71c.45.39.89.8,1.32,1.24a15.55,15.55,0,0,1,2.23,2.95q2.87,4.91,2.87,12.62V311.9a11.25,11.25,0,0,0,.41,3.16,8.28,8.28,0,0,0,1.24,2.59,7.77,7.77,0,0,0,1.28,1.41,10.43,10.43,0,0,0,2.36,1.57,9.63,9.63,0,0,0,1.75.64,10.7,10.7,0,0,0,2.87.37,13,13,0,0,0,2-.16,10.6,10.6,0,0,0,1.86-.49,7.39,7.39,0,0,0,.88-.36,10.61,10.61,0,0,0,2.43-1.57,8.07,8.07,0,0,0,1.84-2.21,8.17,8.17,0,0,0,.76-1.79,10.1,10.1,0,0,0,.38-2c0-.36,0-.74,0-1.12V263.68c0-1.5-.06-2.95-.17-4.36S592.8,256.54,592.57,255.21Z" transform="translate(-332.13 -159.7)"/><path class="cls-3" d="M566.57,229.12c1,.17,2.06.38,3.06.64C568.63,229.5,567.61,229.29,566.57,229.12Z" transform="translate(-332.13 -159.7)"/><path class="cls-3" d="M516.29,190.47a10.87,10.87,0,0,0-3.31,1.9,8.94,8.94,0,0,0-.71.66,8.94,8.94,0,0,1,.71-.66A10.87,10.87,0,0,1,516.29,190.47Z" transform="translate(-332.13 -159.7)"/><path class="cls-3" d="M511.13,194.53a8.26,8.26,0,0,1,1-1.4A8.26,8.26,0,0,0,511.13,194.53Z" transform="translate(-332.13 -159.7)"/><path class="cls-3" d="M530.15,242.56h0V199.3a10,10,0,0,0-.74-3.94,10,10,0,0,1,.74,3.94Z" transform="translate(-332.13 -159.7)"/><path class="cls-3" d="M529,194.53a8.31,8.31,0,0,0-1.82-2.16,10.82,10.82,0,0,0-3.25-1.9,10.82,10.82,0,0,1,3.25,1.9A8.31,8.31,0,0,1,529,194.53Z" transform="translate(-332.13 -159.7)"/><path class="cls-3" d="M584.25,237.89a22.1,22.1,0,0,1,2.11,2.39A22.1,22.1,0,0,0,584.25,237.89Z" transform="translate(-332.13 -159.7)"/><path class="cls-3" d="M536.74,235.5a32.17,32.17,0,0,1,5.31-3.18A32.17,32.17,0,0,0,536.74,235.5Z" transform="translate(-332.13 -159.7)"/><path class="cls-3" d="M546.08,230.69a41.05,41.05,0,0,1,9-1.86A41.05,41.05,0,0,0,546.08,230.69Z" transform="translate(-332.13 -159.7)"/><path class="cls-3" d="M545.38,244.35a22.3,22.3,0,0,0-3.16,1.68A22.3,22.3,0,0,1,545.38,244.35Z" transform="translate(-332.13 -159.7)"/><path class="cls-3" d="M588.22,243a31.17,31.17,0,0,1,1.61,3.1A31.17,31.17,0,0,0,588.22,243Z" transform="translate(-332.13 -159.7)"/><path class="cls-3" d="M518.06,321.48a10.38,10.38,0,0,1-1.86-.49A10.38,10.38,0,0,0,518.06,321.48Z" transform="translate(-332.13 -159.7)"/><path class="cls-3" d="M542.22,246a24,24,0,0,0-2,1.41A24,24,0,0,1,542.22,246Z" transform="translate(-332.13 -159.7)"/><path class="cls-3" d="M566.72,246.51c.45.39.89.8,1.32,1.24a15.55,15.55,0,0,1,2.23,2.95,15.55,15.55,0,0,0-2.23-2.95C567.61,247.31,567.17,246.9,566.72,246.51Z" transform="translate(-332.13 -159.7)"/><path class="cls-3" d="M586.36,240.28a26.86,26.86,0,0,1,1.86,2.74A26.86,26.86,0,0,0,586.36,240.28Z" transform="translate(-332.13 -159.7)"/><path class="cls-3" d="M548.73,243.2a24.32,24.32,0,0,1,6-.73h0A24.32,24.32,0,0,0,548.73,243.2Z" transform="translate(-332.13 -159.7)"/><path class="cls-3" d="M510,198.23a9.09,9.09,0,0,1,.71-2.87A9.09,9.09,0,0,0,510,198.23Z" transform="translate(-332.13 -159.7)"/><path class="cls-3" d="M525.6,320.19a10.55,10.55,0,0,0,1.57-1.13,7.39,7.39,0,0,0,.7-.67,7.39,7.39,0,0,1-.7.67A10.55,10.55,0,0,1,525.6,320.19Z" transform="translate(-332.13 -159.7)"/><path class="cls-3" d="M530.15,311.9a11.24,11.24,0,0,1-.42,3.16,11.24,11.24,0,0,0,.42-3.16v-42A32.49,32.49,0,0,1,532,258.75a32.49,32.49,0,0,0-1.82,11.18Z" transform="translate(-332.13 -159.7)"/><path class="cls-3" d="M560.09,228.6c-1.71,0-3.37.08-5,.23,1.61-.15,3.27-.23,5-.23Z" transform="translate(-332.13 -159.7)"/><path class="cls-2" d="M695.79,232.41a10.09,10.09,0,0,0-1.54-1.1,9.07,9.07,0,0,0-1.08-.54,11.15,11.15,0,0,0-4.45-.88,11.71,11.71,0,0,0-2,.16,10.23,10.23,0,0,0-5.13,2.41,8.57,8.57,0,0,0-1.3,1.4,7.91,7.91,0,0,0-.94,1.65,10.4,10.4,0,0,0-.74,4v41.7a39.65,39.65,0,0,1-.53,6,27.11,27.11,0,0,1-6.82,14.32q-.9,1-1.83,1.8c-.63.55-1.27,1.07-1.92,1.55a22.31,22.31,0,0,1-5.15,2.85,21.11,21.11,0,0,1-2.21.72,22.31,22.31,0,0,1-4.66.72c-.4,0-.81,0-1.22,0a18,18,0,0,1-12.22-4.19,17.75,17.75,0,0,1-1.33-1.28,15.17,15.17,0,0,1-1.19-1.44,19.41,19.41,0,0,1-3.19-7.34,32.87,32.87,0,0,1-.71-7.15V239.53a12.43,12.43,0,0,0-.19-2.17,8.7,8.7,0,0,0-1-2.76,7.94,7.94,0,0,0-1.82-2.19,10.93,10.93,0,0,0-2.39-1.54,10.78,10.78,0,0,0-4.64-1,11,11,0,0,0-4.71,1,10.75,10.75,0,0,0-1.64.95c-.26.18-.51.38-.76.59a8.16,8.16,0,0,0-1.31,1.39,8.34,8.34,0,0,0-.93,1.65,9.29,9.29,0,0,0-.33.93,11.12,11.12,0,0,0-.42,3.15v48.12a45.49,45.49,0,0,0,2,14.14c.2.59.4,1.18.63,1.75a30.17,30.17,0,0,0,5.1,8.81,23.51,23.51,0,0,0,2.2,2.26c.38.35.78.69,1.18,1,.79.65,1.62,1.26,2.47,1.83s1.73,1.08,2.63,1.56a32,32,0,0,0,4.23,1.85,38.19,38.19,0,0,0,12.68,2.06q1.29,0,2.55-.06a41.22,41.22,0,0,0,9.43-1.52,34.43,34.43,0,0,0,6.25-2.46,28.5,28.5,0,0,0,5.33-3.53,26.09,26.09,0,0,0,6.38-8.13h0v5.32a9.5,9.5,0,0,0,.73,3.84,7.68,7.68,0,0,0,.41.81,8,8,0,0,0,1.11,1.43,7,7,0,0,0,.69.63,10.86,10.86,0,0,0,1.53,1,9.12,9.12,0,0,0,.83.41,10.24,10.24,0,0,0,2.66.79,12.46,12.46,0,0,0,2,.15c.34,0,.68,0,1,0a12,12,0,0,0,1.93-.31,10.78,10.78,0,0,0,2.64-1.05,11.63,11.63,0,0,0,1.58-1.08,8.52,8.52,0,0,0,3-7V239.53a9.12,9.12,0,0,0-2.25-6.45A6.25,6.25,0,0,0,695.79,232.41Z" transform="translate(-332.13 -159.7)"/><path class="cls-3" d="M634.47,234.6a8.7,8.7,0,0,1,1,2.76A8.7,8.7,0,0,0,634.47,234.6Z" transform="translate(-332.13 -159.7)"/><path class="cls-3" d="M660.16,308.49a21.11,21.11,0,0,0,2.21-.72A21.11,21.11,0,0,1,660.16,308.49Z" transform="translate(-332.13 -159.7)"/><path class="cls-3" d="M655.5,309.21a22.31,22.31,0,0,0,4.66-.72A22.31,22.31,0,0,1,655.5,309.21Z" transform="translate(-332.13 -159.7)"/><path class="cls-3" d="M683.09,320.29a10.86,10.86,0,0,1-1.53-1A10.86,10.86,0,0,0,683.09,320.29Z" transform="translate(-332.13 -159.7)"/><path class="cls-3" d="M680.87,318.62a8,8,0,0,1-1.11-1.43A8,8,0,0,0,680.87,318.62Z" transform="translate(-332.13 -159.7)"/><path class="cls-3" d="M662.37,307.77a22.31,22.31,0,0,0,5.15-2.85A22.31,22.31,0,0,1,662.37,307.77Z" transform="translate(-332.13 -159.7)"/><path class="cls-3" d="M631.77,319c-.9-.48-1.78-1-2.63-1.56C630,318,630.87,318.53,631.77,319Z" transform="translate(-332.13 -159.7)"/><path class="cls-3" d="M696.48,233.08a6.25,6.25,0,0,0-.69-.67,10.09,10.09,0,0,0-1.54-1.1,10.09,10.09,0,0,1,1.54,1.1A6.25,6.25,0,0,1,696.48,233.08Z" transform="translate(-332.13 -159.7)"/><path class="cls-3" d="M631.77,319a32,32,0,0,0,4.23,1.85,38.19,38.19,0,0,0,12.68,2.06h0A38.19,38.19,0,0,1,636,320.86,32,32,0,0,1,631.77,319Z" transform="translate(-332.13 -159.7)"/><path class="cls-3" d="M672.24,315.35a26.09,26.09,0,0,0,6.38-8.13h0A26.09,26.09,0,0,1,672.24,315.35Z" transform="translate(-332.13 -159.7)"/><path class="cls-3" d="M660.66,321.34a34.43,34.43,0,0,0,6.25-2.46,28.5,28.5,0,0,0,5.33-3.53,28.5,28.5,0,0,1-5.33,3.53A34.43,34.43,0,0,1,660.66,321.34Z" transform="translate(-332.13 -159.7)"/><path class="cls-3" d="M693.17,230.77a9.07,9.07,0,0,1,1.08.54A9.07,9.07,0,0,0,693.17,230.77Z" transform="translate(-332.13 -159.7)"/><path class="cls-3" d="M667.52,304.92c.65-.48,1.29-1,1.92-1.55C668.81,303.92,668.17,304.44,667.52,304.92Z" transform="translate(-332.13 -159.7)"/><path class="cls-3" d="M686.58,321.49a10.24,10.24,0,0,1-2.66-.79A10.24,10.24,0,0,0,686.58,321.49Z" transform="translate(-332.13 -159.7)"/><path class="cls-3" d="M691.48,321.29a12,12,0,0,1-1.93.31A12,12,0,0,0,691.48,321.29Z" transform="translate(-332.13 -159.7)"/><path class="cls-3" d="M694.12,320.24a10.78,10.78,0,0,1-2.64,1.05A10.78,10.78,0,0,0,694.12,320.24Z" transform="translate(-332.13 -159.7)"/><path class="cls-3" d="M688.54,321.64a12.46,12.46,0,0,1-2-.15A12.46,12.46,0,0,0,688.54,321.64Z" transform="translate(-332.13 -159.7)"/><path class="cls-2" d="M852.6,254.87c-.05-.29-.11-.58-.17-.88a61.57,61.57,0,0,0-1.71-6.87c-.19-.59-.39-1.18-.59-1.76-.61-1.75-1.28-3.46-2-5.1q-1-2.17-2.19-4.23t-2.55-4c-.45-.64-.92-1.26-1.4-1.88a38.25,38.25,0,0,0-4.83-5.11,42,42,0,0,0-10.23-6.55,44.78,44.78,0,0,0-7.91-2.75,50.85,50.85,0,0,0-7.07-1.22,59.6,59.6,0,0,0-6-.31H730.27a11.12,11.12,0,0,0-6.15,1.64,9.49,9.49,0,0,0-2,1.72,12.27,12.27,0,0,0-1.26,1.75,11.88,11.88,0,0,0-1.63,6.19,12.29,12.29,0,0,0,1.63,6.36,11.89,11.89,0,0,0,1.26,1.77,9.09,9.09,0,0,0,3.48,2.51,11.17,11.17,0,0,0,3.22.77c.46,0,.94.07,1.43.07h74.94c.65,0,1.28,0,1.9,0a36.54,36.54,0,0,1,5.38.62,30.77,30.77,0,0,1,3.31.81,28.61,28.61,0,0,1,3.1,1.15c.5.22,1,.44,1.45.68a27.54,27.54,0,0,1,2.68,1.53c.43.28.83.56,1.23.85a23.83,23.83,0,0,1,2.22,1.87,20.46,20.46,0,0,1,1.5,1.6l.42.49c.44.54.83,1.1,1.22,1.66a32.39,32.39,0,0,1,3.11,5.5c.37.86.7,1.73,1,2.63s.56,1.8.78,2.72.41,1.85.56,2.8a37.07,37.07,0,0,1,.45,5.82,36.15,36.15,0,0,1-.45,5.74c-.15.93-.33,1.86-.56,2.77s-.48,1.81-.78,2.69-.63,1.76-1,2.61a31.82,31.82,0,0,1-4.33,7.13,22.21,22.21,0,0,1-1.92,2.09,23.83,23.83,0,0,1-2.22,1.87c-.4.29-.8.58-1.23.85a25.62,25.62,0,0,1-2.68,1.53c-.47.24-1,.47-1.45.68a28.61,28.61,0,0,1-3.1,1.15,30.78,30.78,0,0,1-3.31.82,38,38,0,0,1-5.38.61c-.62,0-1.25,0-1.9,0H730.27a12.12,12.12,0,0,0-4.65.85,9.3,9.3,0,0,0-3.48,2.55,13,13,0,0,0-1.26,1.77,12,12,0,0,0-1.63,6.22,12.29,12.29,0,0,0,1.63,6.36,11.89,11.89,0,0,0,1.26,1.77,9.37,9.37,0,0,0,.76.78l.19.16a8.63,8.63,0,0,0,1,.77,9,9,0,0,0,1.5.8,12.12,12.12,0,0,0,4.65.84h75.59a50.34,50.34,0,0,0,21-4.22,43.28,43.28,0,0,0,6.46-3.62,38.15,38.15,0,0,0,5.49-4.5,36.85,36.85,0,0,0,3.11-3.5c.48-.62.95-1.25,1.4-1.88q1.36-1.92,2.55-4a54.41,54.41,0,0,0,4-8.74c.28-.78.54-1.56.79-2.36a62.63,62.63,0,0,0,1.82-7.38,73,73,0,0,0,1.17-13.28A73.8,73.8,0,0,0,852.6,254.87Z" transform="translate(-332.13 -159.7)"/><path class="cls-3" d="M820.35,295.07c-.47.24-1,.47-1.45.68a28.61,28.61,0,0,1-3.1,1.15,28.61,28.61,0,0,0,3.1-1.15C819.4,295.54,819.88,295.31,820.35,295.07Z" transform="translate(-332.13 -159.7)"/><path class="cls-3" d="M718,303.54a12.11,12.11,0,0,0-1.63,6.22,12.39,12.39,0,0,0,1.63,6.36,12.39,12.39,0,0,1-1.63-6.36A12.11,12.11,0,0,1,718,303.54Z" transform="translate(-332.13 -159.7)"/><path class="cls-3" d="M838.84,308.9a36.85,36.85,0,0,0,3.11-3.5c.48-.62.95-1.25,1.4-1.88-.45.63-.92,1.26-1.4,1.88A36.85,36.85,0,0,1,838.84,308.9Z" transform="translate(-332.13 -159.7)"/><path class="cls-3" d="M834.51,276.3c-.22.91-.48,1.81-.78,2.69s-.63,1.76-1,2.61c.37-.85.7-1.72,1-2.61S834.29,277.21,834.51,276.3Z" transform="translate(-332.13 -159.7)"/><path class="cls-3" d="M832.73,253.82c.37.86.7,1.73,1,2.63s.56,1.8.78,2.72c-.22-.92-.48-1.83-.78-2.72S833.1,254.68,832.73,253.82Z" transform="translate(-332.13 -159.7)"/><path class="cls-3" d="M826.48,244.57a23.83,23.83,0,0,0-2.22-1.87A23.83,23.83,0,0,1,826.48,244.57Z" transform="translate(-332.13 -159.7)"/><path class="cls-3" d="M820.35,295.07a25.62,25.62,0,0,0,2.68-1.53A25.62,25.62,0,0,1,820.35,295.07Z" transform="translate(-332.13 -159.7)"/><path class="cls-3" d="M824.26,292.69a23.83,23.83,0,0,0,2.22-1.87A23.83,23.83,0,0,1,824.26,292.69Z" transform="translate(-332.13 -159.7)"/><path class="cls-3" d="M828.4,288.73a31.82,31.82,0,0,0,4.33-7.13A31.82,31.82,0,0,1,828.4,288.73Z" transform="translate(-332.13 -159.7)"/><path class="cls-3" d="M812.49,297.72a30.78,30.78,0,0,0,3.31-.82A30.78,30.78,0,0,1,812.49,297.72Z" transform="translate(-332.13 -159.7)"/><path class="cls-3" d="M815.8,238.49a28.61,28.61,0,0,1,3.1,1.15c.5.22,1,.44,1.45.68-.47-.24-1-.46-1.45-.68A28.61,28.61,0,0,0,815.8,238.49Z" transform="translate(-332.13 -159.7)"/><path class="cls-3" d="M725.62,320.4a9,9,0,0,1-1.5-.8A9,9,0,0,0,725.62,320.4Z" transform="translate(-332.13 -159.7)"/><path class="cls-3" d="M845.9,299.55q-1.18,2.06-2.55,4Q844.71,301.6,845.9,299.55Z" transform="translate(-332.13 -159.7)"/><path class="cls-3" d="M730.27,298.37a12.12,12.12,0,0,0-4.65.85,12.12,12.12,0,0,1,4.65-.85Z" transform="translate(-332.13 -159.7)"/><path class="cls-3" d="M730.27,321.24h0a12.12,12.12,0,0,1-4.65-.84A12.12,12.12,0,0,0,730.27,321.24Z" transform="translate(-332.13 -159.7)"/><path class="cls-3" d="M720.25,318.83l-.18-.16Z" transform="translate(-332.13 -159.7)"/><path class="cls-3" d="M832.73,253.82a32.39,32.39,0,0,0-3.11-5.5A32.39,32.39,0,0,1,832.73,253.82Z" transform="translate(-332.13 -159.7)"/><path class="cls-3" d="M826.48,290.82a22.21,22.21,0,0,0,1.92-2.09A22.21,22.21,0,0,1,826.48,290.82Z" transform="translate(-332.13 -159.7)"/><path class="cls-3" d="M852.43,254c.06.3.12.59.17.88C852.55,254.58,852.49,254.29,852.43,254Z" transform="translate(-332.13 -159.7)"/><path class="cls-3" d="M848.09,240.26c.76,1.64,1.43,3.35,2,5.1C849.52,243.61,848.85,241.9,848.09,240.26Z" transform="translate(-332.13 -159.7)"/><path class="cls-3" d="M843.35,232.06q1.36,1.92,2.55,4Q844.72,234,843.35,232.06Z" transform="translate(-332.13 -159.7)"/><path class="cls-3" d="M718,219.35a12,12,0,0,0-1.63,6.19A12.39,12.39,0,0,0,718,231.9a12.39,12.39,0,0,1-1.63-6.36A12,12,0,0,1,718,219.35Z" transform="translate(-332.13 -159.7)"/><path class="cls-3" d="M842,230.18c.48.62.95,1.24,1.4,1.88-.45-.64-.92-1.26-1.4-1.88a38.25,38.25,0,0,0-4.83-5.11A38.25,38.25,0,0,1,842,230.18Z" transform="translate(-332.13 -159.7)"/><path class="cls-3" d="M828,246.17a20.46,20.46,0,0,0-1.5-1.6A20.46,20.46,0,0,1,828,246.17Z" transform="translate(-332.13 -159.7)"/><path class="cls-3" d="M823,241.85a27.54,27.54,0,0,0-2.68-1.53A27.54,27.54,0,0,1,823,241.85Z" transform="translate(-332.13 -159.7)"/><path class="cls-3" d="M811.91,214.55a50.85,50.85,0,0,1,7.07,1.22A50.85,50.85,0,0,0,811.91,214.55Z" transform="translate(-332.13 -159.7)"/><path class="cls-3" d="M815.8,238.49a30.77,30.77,0,0,0-3.31-.81A30.77,30.77,0,0,1,815.8,238.49Z" transform="translate(-332.13 -159.7)"/><path class="cls-3" d="M730.27,237h0c-.49,0-1,0-1.43-.07C729.3,237,729.78,237,730.27,237Z" transform="translate(-332.13 -159.7)"/><path class="cls-3" d="M730.27,214.24a11.12,11.12,0,0,0-6.15,1.64,11.12,11.12,0,0,1,6.15-1.64Z" transform="translate(-332.13 -159.7)"/><path class="cls-2" d="M761.7,185.71a10.21,10.21,0,0,0,.9,1.18,8.52,8.52,0,0,0,3.17,2.28c.3.12.62.23,1,.33a11.69,11.69,0,0,0,3.23.42h71.72a13.53,13.53,0,0,0,2.26-.18,10.09,10.09,0,0,0,2-.54,6.56,6.56,0,0,0,.89-.41,8.06,8.06,0,0,0,2.27-1.76,10.22,10.22,0,0,0,1.14-1.52,7.32,7.32,0,0,0,.45-.82,10.57,10.57,0,0,0,1-4.68,10.79,10.79,0,0,0-1.06-4.76A11.45,11.45,0,0,0,849,172.8a9.69,9.69,0,0,0-.71-.72,8.51,8.51,0,0,0-1.59-1.16,8.74,8.74,0,0,0-1.83-.77,11.07,11.07,0,0,0-3.18-.43H770a11.69,11.69,0,0,0-3.23.42,7.09,7.09,0,0,0-1,.33,8.4,8.4,0,0,0-3.17,2.23,10.33,10.33,0,0,0-1,1.27,10.15,10.15,0,0,0-1.7,5.76A10.51,10.51,0,0,0,761.7,185.71Z" transform="translate(-332.13 -159.7)"/><path class="cls-2" d="M718.05,183.65c.1.39.22.77.35,1.14a11,11,0,0,0,4.14,5.36,10.34,10.34,0,0,0,2,1,11.57,11.57,0,0,0,3.13.75,15,15,0,0,0,1.53.09,11.8,11.8,0,0,0,6.11-1.54,10.19,10.19,0,0,0,2.29-1.82,11,11,0,0,0,1.39-1.8,9.64,9.64,0,0,0,.54-1,13.58,13.58,0,0,0,1.24-6,13.84,13.84,0,0,0-1.24-6,10.86,10.86,0,0,0-1.93-2.82,10.24,10.24,0,0,0-3.17-2.28,12.43,12.43,0,0,0-5.23-1.07,12.27,12.27,0,0,0-5.36,1.14l-.67.36a10.36,10.36,0,0,0-2.33,1.81,10.77,10.77,0,0,0-2.41,3.85,13.3,13.3,0,0,0-.4,1.35,15.78,15.78,0,0,0-.4,3.61A15.42,15.42,0,0,0,718.05,183.65Z" transform="translate(-332.13 -159.7)"/><path class="cls-4" d="M369.06,160.54a20.47,20.47,0,0,0-14.41,5.4,20,20,0,0,0,.05,28.42,21.86,21.86,0,0,0,28.62,0,20.19,20.19,0,0,0,.13-28.31A20.11,20.11,0,0,0,369.06,160.54ZM379.3,186.8a10.74,10.74,0,0,1-1.47,1.71c-.28.26-.57.51-.87.74a10.49,10.49,0,0,1-1.95,1.19,11.35,11.35,0,0,1-2.21.79,15.05,15.05,0,0,1-2.49.4c-.44,0-.88.05-1.34.05h0c-.45,0-.9,0-1.33-.05a14,14,0,0,1-3.59-.74,11.17,11.17,0,0,1-3.9-2.38c-.28-.26-.55-.54-.8-.82a10.12,10.12,0,0,1-1.27-1.85,11.24,11.24,0,0,1-1.27-4.46c0-.41-.06-.84-.06-1.27s0-.85.06-1.26a11.31,11.31,0,0,1,1.12-4.09,10.33,10.33,0,0,1,1.42-2.18c.25-.28.52-.56.8-.83a11.13,11.13,0,0,1,2.85-2,12.44,12.44,0,0,1,3.44-1,15.74,15.74,0,0,1,2.62-.2,15.33,15.33,0,0,1,3.82.45,12.07,12.07,0,0,1,2.21.8c.34.17.67.35,1,.55a11.07,11.07,0,0,1,1.8,1.41,10.67,10.67,0,0,1,1.44,1.73,10,10,0,0,1,1,2,11.77,11.77,0,0,1,.62,2.21,14.73,14.73,0,0,1,.2,2.45A11.67,11.67,0,0,1,379.3,186.8Z" transform="translate(-332.13 -159.7)"/><path class="cls-5" d="M382.15,207a18.86,18.86,0,0,0-24.89,0,17.22,17.22,0,0,0-5.66,13.32V326a65.82,65.82,0,0,1-.3,7.52l0,.2c-.85.08-2.32.17-4.71.17a13.71,13.71,0,0,0-11,5.21,16.09,16.09,0,0,0-3.41,10.05,15.81,15.81,0,0,0,3.69,10.26,14.36,14.36,0,0,0,11.29,5.08,96.15,96.15,0,0,0,13.7-.86,36.39,36.39,0,0,0,11.43-3.48,28.25,28.25,0,0,0,8.07-6.05,24.35,24.35,0,0,0,5.15-9.57,53.15,53.15,0,0,0,1.89-9.81c.31-3.13.45-6.89.45-11.47V220.34A17.22,17.22,0,0,0,382.15,207ZM379.8,323.2q0,3.21-.1,5.89c-.07,1.78-.17,3.38-.31,4.81-.07.71-.15,1.42-.25,2.12-.19,1.25-.43,2.48-.71,3.7-.19.84-.4,1.67-.65,2.49a20.15,20.15,0,0,1-1.44,3.64,13.86,13.86,0,0,1-1.95,2.83,17.92,17.92,0,0,1-2.56,2.3,25.09,25.09,0,0,1-3.28,2,23.3,23.3,0,0,1-4,1.61,35.06,35.06,0,0,1-4.86,1.05c-.89.13-1.81.25-2.77.34a95.51,95.51,0,0,1-9.77.44,8.64,8.64,0,0,1-1.56-.13,6.71,6.71,0,0,1-1.38-.42,5.64,5.64,0,0,1-1.72-1.13,5.91,5.91,0,0,1-.48-.52,8,8,0,0,1-.81-1.15c-.11-.2-.22-.4-.31-.61a7.23,7.23,0,0,1-.46-1.28,8.51,8.51,0,0,1-.26-2.1,8.26,8.26,0,0,1,.95-4,7.64,7.64,0,0,1,.75-1.13l.05-.06a5.35,5.35,0,0,1,2.36-1.7,6.09,6.09,0,0,1,1.58-.37c.24,0,.49,0,.74,0h1.13c.73,0,1.41,0,2-.05s1.22-.06,1.75-.1c.8-.07,1.48-.15,2.06-.25a6.6,6.6,0,0,0,1.1-.3,6.08,6.08,0,0,0,1-.47,6.8,6.8,0,0,0,1.71-1.48,8.38,8.38,0,0,0,1.63-3.33,11,11,0,0,0,.25-1.36c.09-.71.17-1.55.23-2.53.09-1.63.14-3.64.14-6V220.34a12.16,12.16,0,0,1,.19-2.22,9.16,9.16,0,0,1,1-2.85,8.32,8.32,0,0,1,1.11-1.58,9.25,9.25,0,0,1,.7-.7c.25-.22.51-.43.77-.62a9.51,9.51,0,0,1,1.63-1c.29-.14.58-.27.88-.38a10.91,10.91,0,0,1,3.84-.66h0a11.83,11.83,0,0,1,2,.16,10.08,10.08,0,0,1,2.72.88q.42.21.84.45a12.21,12.21,0,0,1,1.56,1.17,7.71,7.71,0,0,1,.7.7,8.63,8.63,0,0,1,1.54,2.47,11,11,0,0,1,.74,4.18Z" transform="translate(-332.13 -159.7)"/><path class="cls-6" d="M488.39,226.35a19.15,19.15,0,0,0-24.63.05A16.75,16.75,0,0,0,458,239.53v41.63c-.1,6.43-1.8,11.32-5.19,14.95s-6.81,5.13-11.15,5.13-6.52-1.67-7.69-2.92c-2-2.1-3-5.63-3-10.48V239.53a16.6,16.6,0,0,0-5.82-13.22A18.58,18.58,0,0,0,413,221.89a18.77,18.77,0,0,0-12.29,4.41,16.67,16.67,0,0,0-5.82,13.23v48.12a51.86,51.86,0,0,0,3.21,18.78,36.29,36.29,0,0,0,9.41,14.12,38.73,38.73,0,0,0,13.21,7.85,46.16,46.16,0,0,0,15.33,2.52A47.36,47.36,0,0,0,458,326a36.84,36.84,0,0,0,4-2.38,15.76,15.76,0,0,0,1.94,1.85,18.81,18.81,0,0,0,12,4.18,19.11,19.11,0,0,0,12.23-4.29,16.35,16.35,0,0,0,6-13.17V239.53A16.69,16.69,0,0,0,488.39,226.35Zm-2.28,85.83a11.07,11.07,0,0,1-.19,2.12,7.94,7.94,0,0,1-2.84,4.86c-.25.2-.51.4-.77.58a10.83,10.83,0,0,1-1.66.93c-.28.13-.58.24-.87.35a11.49,11.49,0,0,1-1.86.46q-.48.07-1,.12c-.33,0-.67,0-1,0h0a11.55,11.55,0,0,1-3.77-.6,10.59,10.59,0,0,1-3.21-1.79,8,8,0,0,1-1.29-1.32,7.6,7.6,0,0,1-1.24-2.42,10.3,10.3,0,0,1-.41-3v-5.32c-.32.63-.66,1.25-1,1.85a25.43,25.43,0,0,1-5.35,6.28q-.8.67-1.65,1.29a29.31,29.31,0,0,1-3.68,2.24,35.91,35.91,0,0,1-10.8,3.47,44.48,44.48,0,0,1-4.88.51c-.83,0-1.69.06-2.55.06h0c-.57,0-1.13,0-1.69,0-1.11,0-2.2-.13-3.28-.26s-2.13-.3-3.17-.52a35.58,35.58,0,0,1-4.53-1.25,30.7,30.7,0,0,1-9.34-5.24c-.4-.32-.79-.66-1.18-1a26.61,26.61,0,0,1-5.85-7.79c-.52-1-1-2.13-1.45-3.28A36.37,36.37,0,0,1,404.4,300c-.33-1.24-.61-2.52-.83-3.84s-.39-2.7-.5-4.11-.17-2.87-.17-4.37V239.53a12.43,12.43,0,0,1,.19-2.17,8.7,8.7,0,0,1,1-2.76,7.55,7.55,0,0,1,1.12-1.52,7.39,7.39,0,0,1,.7-.67c.25-.21.5-.41.76-.59a10.75,10.75,0,0,1,1.64-.95,11.08,11.08,0,0,1,4.72-1,10.59,10.59,0,0,1,5.46,1.42,9.78,9.78,0,0,1,1.56,1.1,8.16,8.16,0,0,1,1.31,1.39,6.75,6.75,0,0,1,.51.8,8.57,8.57,0,0,1,.75,1.78,11.12,11.12,0,0,1,.42,3.15v48.31c0,.87,0,1.72.08,2.54a30.71,30.71,0,0,0,.63,4.61,19.41,19.41,0,0,0,3.19,7.34,13.88,13.88,0,0,0,1.2,1.44,16.31,16.31,0,0,0,4.29,3.33,19.17,19.17,0,0,0,9.25,2.14,22.49,22.49,0,0,0,17-7.67,25.34,25.34,0,0,0,3.15-4.15,26.81,26.81,0,0,0,2.27-4.77,32.64,32.64,0,0,0,1.77-8.33c.09-1,.14-2,.16-3.09v-41.7a9.67,9.67,0,0,1,1.17-4.87,8.09,8.09,0,0,1,1.81-2.2c.25-.22.51-.42.77-.61a10.24,10.24,0,0,1,4.36-1.8,11.71,11.71,0,0,1,2-.16,11,11,0,0,1,4.7,1,10.36,10.36,0,0,1,2.37,1.54,6.25,6.25,0,0,1,.69.67,7.75,7.75,0,0,1,1.52,2.37,10.64,10.64,0,0,1,.73,4.08Z" transform="translate(-332.13 -159.7)"/><path class="cls-7" d="M588.33,230.77a41.07,41.07,0,0,0-13.05-7.64,45.09,45.09,0,0,0-15.19-2.53,49.38,49.38,0,0,0-21.5,4.51l-.44.21v-26a16.54,16.54,0,0,0-5.81-13,18.65,18.65,0,0,0-12.2-4.42,19,19,0,0,0-12.28,4.38A16.46,16.46,0,0,0,502,199.3V311.9a16.8,16.8,0,0,0,5.76,13.23,19.12,19.12,0,0,0,24.68,0,16.76,16.76,0,0,0,5.76-13.22v-42c0-6.17,1.64-10.88,5-14.38a15.23,15.23,0,0,1,11.6-5.08c4.28,0,6.34,1.62,7.51,2.84,1.9,2,2.86,5.33,2.86,10V311.9a16.85,16.85,0,0,0,5.67,13.19,18.33,18.33,0,0,0,12.24,4.55,18.77,18.77,0,0,0,12.34-4.48,16.71,16.71,0,0,0,5.86-13.26V263.68A51.24,51.24,0,0,0,598,244.87,35.38,35.38,0,0,0,588.33,230.77Zm4.92,81.13c0,.38,0,.76,0,1.12a10.1,10.1,0,0,1-.38,2,8.17,8.17,0,0,1-.76,1.79,8.07,8.07,0,0,1-1.84,2.21,10.61,10.61,0,0,1-2.43,1.57,7.39,7.39,0,0,1-.88.36,10.6,10.6,0,0,1-1.86.49,13,13,0,0,1-2,.16,10.7,10.7,0,0,1-2.87-.37,9.63,9.63,0,0,1-1.75-.64,10.43,10.43,0,0,1-2.36-1.57,7.77,7.77,0,0,1-1.28-1.41,8.28,8.28,0,0,1-1.24-2.59,11.25,11.25,0,0,1-.41-3.16V263.32q0-7.72-2.87-12.62a15.55,15.55,0,0,0-2.23-2.95c-.43-.44-.87-.85-1.32-1.24a16.91,16.91,0,0,0-8.06-3.71,22.1,22.1,0,0,0-3.89-.33,24.32,24.32,0,0,0-6,.73,22.82,22.82,0,0,0-3.35,1.15,22.3,22.3,0,0,0-3.16,1.68,24,24,0,0,0-2,1.41c-.33.25-.65.52-1,.79q-1,.83-1.86,1.77a24.59,24.59,0,0,0-5.44,8.75,32.49,32.49,0,0,0-1.82,11.18v42a11.24,11.24,0,0,1-.42,3.16,8.16,8.16,0,0,1-1.86,3.33,7.39,7.39,0,0,1-.7.67,10.55,10.55,0,0,1-1.57,1.13,10.74,10.74,0,0,1-5.55,1.45,12.83,12.83,0,0,1-2-.16,10.38,10.38,0,0,1-1.86-.49,10.49,10.49,0,0,1-3.27-1.93,8.93,8.93,0,0,1-3-7.16V199.3a9.36,9.36,0,0,1,.05-1.07,9.09,9.09,0,0,1,.71-2.87,7.18,7.18,0,0,1,.42-.83,8.26,8.26,0,0,1,1-1.4l.09-.1a8.94,8.94,0,0,1,.71-.66,10.87,10.87,0,0,1,3.31-1.9,11,11,0,0,1,1.86-.47,12.83,12.83,0,0,1,2-.16,11.25,11.25,0,0,1,2.88.36q.47.12.9.27a10.82,10.82,0,0,1,3.25,1.9,8.31,8.31,0,0,1,1.82,2.16c.15.27.29.55.42.83a10,10,0,0,1,.74,3.94v43.26a25.8,25.8,0,0,1,2.3-3.09,26.16,26.16,0,0,1,2.74-2.73c.5-.43,1-.84,1.55-1.24a32.17,32.17,0,0,1,5.31-3.18,35.71,35.71,0,0,1,4-1.63,41.05,41.05,0,0,1,9-1.86c1.61-.15,3.27-.23,5-.23h0c.56,0,1.12,0,1.67,0,1.09.05,2.17.13,3.23.26.53.06,1.06.14,1.58.23,1,.17,2.06.38,3.06.64s2,.56,3,.91a32.51,32.51,0,0,1,8.09,4.23q1.25.9,2.43,1.92c.39.34.78.7,1.15,1.07a22.1,22.1,0,0,1,2.11,2.39,26.86,26.86,0,0,1,1.86,2.74,31.17,31.17,0,0,1,1.61,3.1c.25.54.48,1.1.71,1.67a33.34,33.34,0,0,1,1.18,3.58,38.37,38.37,0,0,1,.85,3.84c.23,1.33.4,2.69.51,4.11s.17,2.86.17,4.36Z" transform="translate(-332.13 -159.7)"/><path class="cls-8" d="M701,226.35a19.15,19.15,0,0,0-24.63.05,16.75,16.75,0,0,0-5.76,13.13v41.63c-.11,6.43-1.8,11.32-5.2,14.95s-6.81,5.13-11.14,5.13-6.53-1.67-7.7-2.92c-2-2.1-2.94-5.63-2.94-10.48V239.53a16.63,16.63,0,0,0-5.82-13.22,19.17,19.17,0,0,0-24.48,0,16.67,16.67,0,0,0-5.82,13.23v48.12a52.08,52.08,0,0,0,3.2,18.78,36.39,36.39,0,0,0,9.41,14.12,38.67,38.67,0,0,0,13.22,7.85,46.11,46.11,0,0,0,15.33,2.52A47.36,47.36,0,0,0,670.57,326a36.84,36.84,0,0,0,4-2.38,16.46,16.46,0,0,0,1.93,1.85,18.84,18.84,0,0,0,12,4.18,19.11,19.11,0,0,0,12.23-4.29,16.35,16.35,0,0,0,6-13.17V239.53A16.69,16.69,0,0,0,701,226.35Zm-2.28,85.83a8.52,8.52,0,0,1-3,7,11.63,11.63,0,0,1-1.58,1.08,10.78,10.78,0,0,1-2.64,1.05,12,12,0,0,1-1.93.31c-.33,0-.67,0-1,0a12.46,12.46,0,0,1-2-.15,10.24,10.24,0,0,1-2.66-.79,9.12,9.12,0,0,1-.83-.41,10.86,10.86,0,0,1-1.53-1,7,7,0,0,1-.69-.63,8,8,0,0,1-1.11-1.43,7.68,7.68,0,0,1-.41-.81,9.5,9.5,0,0,1-.73-3.84v-5.32a26.09,26.09,0,0,1-6.38,8.13,28.5,28.5,0,0,1-5.33,3.53,34.43,34.43,0,0,1-6.25,2.46,41.22,41.22,0,0,1-9.43,1.52q-1.26.06-2.55.06h0A38.19,38.19,0,0,1,636,320.86a32,32,0,0,1-4.23-1.85c-.9-.48-1.78-1-2.63-1.56s-1.68-1.18-2.47-1.83c-.4-.32-.8-.66-1.18-1a23.51,23.51,0,0,1-2.2-2.26,30.17,30.17,0,0,1-5.1-8.81c-.23-.57-.43-1.16-.63-1.75a45.49,45.49,0,0,1-2-14.14V239.53a11.12,11.12,0,0,1,.42-3.15,9.29,9.29,0,0,1,.33-.93,8.34,8.34,0,0,1,.93-1.65,8.16,8.16,0,0,1,1.31-1.39c.25-.21.5-.41.76-.59a10.75,10.75,0,0,1,1.64-.95,11,11,0,0,1,4.71-1,10.78,10.78,0,0,1,4.64,1,10.93,10.93,0,0,1,2.39,1.54,7.94,7.94,0,0,1,1.82,2.19,8.7,8.7,0,0,1,1,2.76,12.43,12.43,0,0,1,.19,2.17v48.31a32.87,32.87,0,0,0,.71,7.15,19.41,19.41,0,0,0,3.19,7.34,15.17,15.17,0,0,0,1.19,1.44,17.75,17.75,0,0,0,1.33,1.28,18,18,0,0,0,12.22,4.19c.41,0,.82,0,1.22,0a22.31,22.31,0,0,0,4.66-.72,21.11,21.11,0,0,0,2.21-.72,22.31,22.31,0,0,0,5.15-2.85c.65-.48,1.29-1,1.92-1.55s1.23-1.16,1.83-1.8a27.11,27.11,0,0,0,6.82-14.32,39.65,39.65,0,0,0,.53-6v-41.7a10.4,10.4,0,0,1,.74-4,7.91,7.91,0,0,1,.94-1.65,8.57,8.57,0,0,1,1.3-1.4,10.23,10.23,0,0,1,5.13-2.41,11.71,11.71,0,0,1,2-.16,11.15,11.15,0,0,1,4.45.88,9.07,9.07,0,0,1,1.08.54,10.09,10.09,0,0,1,1.54,1.1,6.25,6.25,0,0,1,.69.67,9.12,9.12,0,0,1,2.25,6.45Z" transform="translate(-332.13 -159.7)"/><path class="cls-9" d="M858.36,244.74a60.93,60.93,0,0,0-10.11-19.49,48,48,0,0,0-18-14,57.87,57.87,0,0,0-24.37-5H730.27c-7.35,0-11.77,3.34-14.18,6.13a19.85,19.85,0,0,0-4.84,13.17,20.11,20.11,0,0,0,4.84,13.36c2.41,2.79,6.82,6.12,14.18,6.12h74.94A26,26,0,0,1,815.68,247a16.45,16.45,0,0,1,6.48,4.7,23,23,0,0,1,4,7.31,27.65,27.65,0,0,1,1.38,8.81,27.12,27.12,0,0,1-1.37,8.65,23.33,23.33,0,0,1-4,7.28,16.5,16.5,0,0,1-6.47,4.71,26.1,26.1,0,0,1-10.48,1.94H730.27c-7.38,0-11.81,3.38-14.22,6.21a20.68,20.68,0,0,0,0,26.54c2.41,2.79,6.82,6.12,14.18,6.12h75.59a58.33,58.33,0,0,0,24.34-4.94,47.6,47.6,0,0,0,18-14,60.93,60.93,0,0,0,10.11-19.49,81,81,0,0,0,0-46.1Zm-5.82,36.33a62.63,62.63,0,0,1-1.82,7.38c-.25.8-.51,1.58-.79,2.36a54.41,54.41,0,0,1-4,8.74q-1.18,2.06-2.55,4c-.45.63-.92,1.26-1.4,1.88a36.85,36.85,0,0,1-3.11,3.5,38.15,38.15,0,0,1-5.49,4.5,43.28,43.28,0,0,1-6.46,3.62,50.34,50.34,0,0,1-21,4.22H730.27a12.12,12.12,0,0,1-4.65-.84,9,9,0,0,1-1.5-.8,8.63,8.63,0,0,1-1-.77l-.19-.16a9.37,9.37,0,0,1-.76-.78,11.89,11.89,0,0,1-1.26-1.77,12.29,12.29,0,0,1-1.63-6.36,12,12,0,0,1,1.63-6.22,13,13,0,0,1,1.26-1.77,9.3,9.3,0,0,1,3.48-2.55,12.12,12.12,0,0,1,4.65-.85h74.94c.65,0,1.28,0,1.9,0a38,38,0,0,0,5.38-.61,30.78,30.78,0,0,0,3.31-.82,28.61,28.61,0,0,0,3.1-1.15c.5-.21,1-.44,1.45-.68a25.62,25.62,0,0,0,2.68-1.53c.43-.27.83-.56,1.23-.85a23.83,23.83,0,0,0,2.22-1.87,22.21,22.21,0,0,0,1.92-2.09,31.82,31.82,0,0,0,4.33-7.13c.37-.85.7-1.72,1-2.61s.56-1.78.78-2.69.41-1.84.56-2.77a36.15,36.15,0,0,0,.45-5.74,37.07,37.07,0,0,0-.45-5.82c-.15-1-.33-1.88-.56-2.8s-.48-1.83-.78-2.72-.63-1.77-1-2.63a32.39,32.39,0,0,0-3.11-5.5c-.39-.56-.78-1.12-1.22-1.66l-.42-.49a20.46,20.46,0,0,0-1.5-1.6,23.83,23.83,0,0,0-2.22-1.87c-.4-.29-.8-.57-1.23-.85a27.54,27.54,0,0,0-2.68-1.53c-.47-.24-1-.46-1.45-.68a28.61,28.61,0,0,0-3.1-1.15,30.77,30.77,0,0,0-3.31-.81,36.54,36.54,0,0,0-5.38-.62c-.62,0-1.25,0-1.9,0H730.27c-.49,0-1,0-1.43-.07a11.17,11.17,0,0,1-3.22-.77,9.09,9.09,0,0,1-3.48-2.51,11.89,11.89,0,0,1-1.26-1.77,12.29,12.29,0,0,1-1.63-6.36,11.88,11.88,0,0,1,1.63-6.19,12.27,12.27,0,0,1,1.26-1.75,9.49,9.49,0,0,1,2-1.72,11.12,11.12,0,0,1,6.15-1.64h75.59a59.6,59.6,0,0,1,6,.31,50.85,50.85,0,0,1,7.07,1.22,44.78,44.78,0,0,1,7.91,2.75,42,42,0,0,1,10.23,6.55,38.25,38.25,0,0,1,4.83,5.11c.48.62.95,1.24,1.4,1.88q1.36,1.92,2.55,4t2.19,4.23c.76,1.64,1.43,3.35,2,5.1.2.58.4,1.17.59,1.76a61.57,61.57,0,0,1,1.71,6.87c.06.3.12.59.17.88a73.8,73.8,0,0,1,1.11,12.92A73,73,0,0,1,852.54,281.07Z" transform="translate(-332.13 -159.7)"/><path class="cls-10" d="M770,197.92h71.72c6.89,0,11.05-3,13.33-5.52A18.13,18.13,0,0,0,859.69,180a18.65,18.65,0,0,0-4.71-12.5,17.16,17.16,0,0,0-13.31-5.79H770a17.22,17.22,0,0,0-13.32,5.65,18.31,18.31,0,0,0-4.69,12.36,18.52,18.52,0,0,0,4.65,12.44A17.12,17.12,0,0,0,770,197.92ZM762.6,172.7a8.4,8.4,0,0,1,3.17-2.23,7.09,7.09,0,0,1,1-.33,11.69,11.69,0,0,1,3.23-.42h71.72a11.07,11.07,0,0,1,3.18.43,8.74,8.74,0,0,1,1.83.77,8.51,8.51,0,0,1,1.59,1.16,9.69,9.69,0,0,1,.71.72,11.45,11.45,0,0,1,1.65,2.45,10.79,10.79,0,0,1,1.06,4.76,10.57,10.57,0,0,1-1,4.68,7.32,7.32,0,0,1-.45.82,10.22,10.22,0,0,1-1.14,1.52,8.06,8.06,0,0,1-2.27,1.76,6.56,6.56,0,0,1-.89.41,10.09,10.09,0,0,1-2,.54,13.53,13.53,0,0,1-2.26.18H770a11.69,11.69,0,0,1-3.23-.42c-.33-.1-.65-.21-1-.33a8.52,8.52,0,0,1-3.17-2.28,10.21,10.21,0,0,1-.9-1.18,10.51,10.51,0,0,1-1.76-6,10.15,10.15,0,0,1,1.7-5.76A10.33,10.33,0,0,1,762.6,172.7Z" transform="translate(-332.13 -159.7)"/><path class="cls-11" d="M729.17,200a19,19,0,0,0,14.22-5.86,21.81,21.81,0,0,0,0-28.62,20.19,20.19,0,0,0-28.31-.13,21.71,21.71,0,0,0,0,28.79A19,19,0,0,0,729.17,200ZM718.4,174.86a10.77,10.77,0,0,1,2.41-3.85,10.36,10.36,0,0,1,2.33-1.81l.67-.36a12.27,12.27,0,0,1,5.36-1.14h0a12.43,12.43,0,0,1,5.23,1.07,10.24,10.24,0,0,1,3.17,2.28,10.86,10.86,0,0,1,1.93,2.82,13.84,13.84,0,0,1,1.24,6,13.58,13.58,0,0,1-1.24,6,9.64,9.64,0,0,1-.54,1,11,11,0,0,1-1.39,1.8,10.19,10.19,0,0,1-2.29,1.82,11.77,11.77,0,0,1-6.11,1.54h0a15,15,0,0,1-1.53-.09,11.57,11.57,0,0,1-3.13-.75,10.34,10.34,0,0,1-2-1,11,11,0,0,1-4.14-5.36c-.13-.37-.25-.75-.35-1.14a15.42,15.42,0,0,1-.45-3.83,15.78,15.78,0,0,1,.4-3.61A13.3,13.3,0,0,1,718.4,174.86Z" transform="translate(-332.13 -159.7)"/><path class="cls-3" d="M735.28,190.5a10.19,10.19,0,0,0,2.29-1.82,11,11,0,0,0,1.39-1.8,11,11,0,0,1-1.39,1.8A10.19,10.19,0,0,1,735.28,190.5Z" transform="translate(-332.13 -159.7)"/><path class="cls-3" d="M729.17,192h0a15,15,0,0,1-1.53-.09A15,15,0,0,0,729.17,192Z" transform="translate(-332.13 -159.7)"/><path class="cls-3" d="M729.17,167.7a12.27,12.27,0,0,0-5.36,1.14,12.27,12.27,0,0,1,5.36-1.14Z" transform="translate(-332.13 -159.7)"/><path class="cls-3" d="M739.5,173.87a10.86,10.86,0,0,0-1.93-2.82,10.24,10.24,0,0,0-3.17-2.28,10.24,10.24,0,0,1,3.17,2.28A10.86,10.86,0,0,1,739.5,173.87Z" transform="translate(-332.13 -159.7)"/><path class="cls-3" d="M765.77,170.47a8.4,8.4,0,0,0-3.17,2.23,10.33,10.33,0,0,0-1,1.27,10.33,10.33,0,0,1,1-1.27A8.4,8.4,0,0,1,765.77,170.47Z" transform="translate(-332.13 -159.7)"/><path class="cls-3" d="M850.63,175.25A11.45,11.45,0,0,0,849,172.8a9.69,9.69,0,0,0-.71-.72,9.69,9.69,0,0,1,.71.72A11.45,11.45,0,0,1,850.63,175.25Z" transform="translate(-332.13 -159.7)"/><path class="cls-3" d="M762.6,186.89a10.21,10.21,0,0,1-.9-1.18,10.21,10.21,0,0,0,.9,1.18,8.52,8.52,0,0,0,3.17,2.28A8.52,8.52,0,0,1,762.6,186.89Z" transform="translate(-332.13 -159.7)"/><path class="cls-3" d="M846.8,188.79a8.06,8.06,0,0,0,2.27-1.76,10.22,10.22,0,0,0,1.14-1.52,10.22,10.22,0,0,1-1.14,1.52A8.06,8.06,0,0,1,846.8,188.79Z" transform="translate(-332.13 -159.7)"/></svg>