<?xml version="1.0" standalone="no"?>
<!DOCTYPE svg PUBLIC "-//W3C//DTD SVG 20010904//EN"
 "http://www.w3.org/TR/2001/REC-SVG-20010904/DTD/svg10.dtd">
<svg version="1.0" xmlns="http://www.w3.org/2000/svg"
 width="525.000000pt" height="525.000000pt" viewBox="0 0 525.000000 525.000000"
 preserveAspectRatio="xMidYMid meet">
<metadata>
Created by potrace 1.11, written by Peter Selinger 2001-2013
</metadata>
<g transform="translate(0.000000,525.000000) scale(0.100000,-0.100000)"
fill="#000000" stroke="none">
<path d="M361 5224 c-151 -40 -275 -156 -334 -312 l-22 -57 -3 -2190 c-2
-1597 0 -2208 9 -2258 15 -92 69 -196 135 -262 64 -65 174 -121 264 -135 90
-14 4340 -14 4430 0 90 14 200 70 264 135 66 66 120 170 135 262 9 50 11 661
9 2258 l-3 2190 -22 57 c-60 159 -184 272 -338 313 -52 13 -314 15 -2265 14
-1894 0 -2213 -2 -2259 -15z m1106 -845 c164 -80 193 -344 51 -464 -50 -42
-90 -55 -170 -55 -87 0 -137 20 -190 75 -47 49 -68 109 -68 196 0 170 95 269
259 269 55 0 86 -5 118 -21z m2516 -30 c48 -13 102 -60 130 -113 27 -51 29
-164 5 -212 -22 -40 -90 -102 -125 -111 -16 -5 -422 -8 -903 -8 l-875 0 -41
22 c-134 72 -164 251 -61 360 72 76 21 72 977 73 567 0 868 -4 893 -11z m-667
-1024 c290 -50 502 -188 662 -433 134 -204 202 -461 202 -767 0 -367 -96 -654
-299 -894 -138 -162 -383 -282 -634 -310 -61 -7 -425 -11 -1000 -11 -751 0
-912 2 -951 14 -108 33 -166 118 -166 243 0 115 45 198 129 237 46 21 53 21
1016 26 1078 7 1003 2 1155 76 159 78 286 255 326 453 20 101 15 294 -10 386
-51 187 -181 348 -339 420 -135 62 -82 59 -1142 65 -700 4 -977 8 -996 17 -87
39 -139 128 -139 240 0 114 38 185 123 228 l51 25 962 0 c816 0 975 -2 1050
-15z"/>
</g>
</svg>
